<svg xmlns="http://www.w3.org/2000/svg" viewBox="0 0 1600 900" role="img" aria-labelledby="title desc">
  <title>Hero Slide Three</title>
  <desc>Showcase your services with confidence hero slide</desc>
  <defs>
    <linearGradient id="bg" x1="0" y1="0" x2="1" y2="1">
      <stop offset="0%" stop-color="#172554"/>
      <stop offset="50%" stop-color="#1e293b"/>
      <stop offset="100%" stop-color="#0f766e"/>
    </linearGradient>
  </defs>
  <rect width="1600" height="900" fill="url(#bg)"/>
  <path d="M1010 130h370c37 0 68 31 68 68v430c0 37-31 68-68 68h-370c-37 0-68-31-68-68V198c0-37 31-68 68-68Z" fill="#ffffff" fill-opacity="0.08"/>
  <rect x="1020" y="180" width="350" height="170" rx="28" fill="#ffffff" fill-opacity="0.16"/>
  <rect x="1020" y="390" width="180" height="18" rx="9" fill="#ccfbf1" fill-opacity="0.85"/>
  <rect x="1020" y="430" width="240" height="18" rx="9" fill="#ccfbf1" fill-opacity="0.65"/>
  <rect x="1020" y="470" width="290" height="18" rx="9" fill="#ccfbf1" fill-opacity="0.45"/>
  <text x="170" y="150" fill="#ccfbf1" font-family="Segoe UI, Arial, sans-serif" font-size="38" font-weight="700">Simple. Elegant. Effective.</text>
  <text x="170" y="285" fill="#ffffff" font-family="Segoe UI, Arial, sans-serif" font-size="76" font-weight="800">Showcase your services</text>
  <text x="170" y="365" fill="#ffffff" font-family="Segoe UI, Arial, sans-serif" font-size="76" font-weight="800">with confidence</text>
  <rect x="170" y="430" width="720" height="24" rx="12" fill="#ccfbf1" fill-opacity="0.55"/>
  <rect x="170" y="472" width="650" height="24" rx="12" fill="#ccfbf1" fill-opacity="0.45"/>
  <rect x="170" y="560" width="170" height="58" rx="29" fill="#4f46e5"/>
  <rect x="362" y="560" width="190" height="58" rx="29" fill="#ffffff" fill-opacity="0.18" stroke="#ffffff" stroke-opacity="0.5"/>
</svg>