<svg xmlns="http://www.w3.org/2000/svg" viewBox="0 0 1600 900" role="img" aria-labelledby="title desc">
  <title>Hero Slide Two</title>
  <desc>Creative and responsive hero slide</desc>
  <defs>
    <linearGradient id="bg" x1="0" y1="0" x2="1" y2="1">
      <stop offset="0%" stop-color="#111827"/>
      <stop offset="50%" stop-color="#7c3aed"/>
      <stop offset="100%" stop-color="#ec4899"/>
    </linearGradient>
  </defs>
  <rect width="1600" height="900" fill="url(#bg)"/>
  <rect x="1040" y="120" width="320" height="520" rx="36" fill="#ffffff" fill-opacity="0.08"/>
  <rect x="1100" y="180" width="200" height="18" rx="9" fill="#fdf2f8" fill-opacity="0.9"/>
  <rect x="1100" y="230" width="200" height="120" rx="24" fill="#ffffff" fill-opacity="0.18"/>
  <rect x="1100" y="390" width="140" height="16" rx="8" fill="#ffffff" fill-opacity="0.7"/>
  <rect x="1100" y="430" width="180" height="16" rx="8" fill="#ffffff" fill-opacity="0.55"/>
  <rect x="180" y="160" width="400" height="16" rx="8" fill="#fbcfe8" fill-opacity="0.95"/>
  <text x="180" y="145" fill="#fce7f3" font-family="Segoe UI, Arial, sans-serif" font-size="38" font-weight="700">Creative and responsive</text>
  <text x="180" y="270" fill="#ffffff" font-family="Segoe UI, Arial, sans-serif" font-size="76" font-weight="800">Design that looks premium</text>
  <text x="180" y="350" fill="#ffffff" font-family="Segoe UI, Arial, sans-serif" font-size="76" font-weight="800">on every screen</text>
  <rect x="180" y="410" width="700" height="24" rx="12" fill="#fdf2f8" fill-opacity="0.55"/>
  <rect x="180" y="452" width="620" height="24" rx="12" fill="#fdf2f8" fill-opacity="0.45"/>
  <rect x="180" y="540" width="180" height="58" rx="29" fill="#4f46e5"/>
  <rect x="382" y="540" width="180" height="58" rx="29" fill="#ffffff" fill-opacity="0.18" stroke="#ffffff" stroke-opacity="0.5"/>
</svg>